<svg xmlns="http://www.w3.org/2000/svg" viewBox="0 0 1600 1000" role="img" aria-label="校园欢迎图">
  <defs>
    <linearGradient id="sky" x1="0" y1="0" x2="0" y2="1">
      <stop offset="0%" stop-color="#d8ead2" />
      <stop offset="100%" stop-color="#f6fbf2" />
    </linearGradient>
    <linearGradient id="path" x1="0" y1="0" x2="1" y2="1">
      <stop offset="0%" stop-color="#c4b7a5" />
      <stop offset="100%" stop-color="#ab9d8e" />
    </linearGradient>
    <linearGradient id="bush" x1="0" y1="0" x2="1" y2="1">
      <stop offset="0%" stop-color="#4f8f6f" />
      <stop offset="100%" stop-color="#2f6f56" />
    </linearGradient>
  </defs>

  <rect width="1600" height="1000" fill="url(#sky)" />
  <rect y="690" width="1600" height="310" fill="#99c49f" />

  <path d="M580 1000 L750 420 L850 420 L1020 1000 Z" fill="url(#path)" opacity="0.92" />
  <path d="M510 1000 L730 420 L770 420 L550 1000 Z" fill="#d7c9b5" opacity="0.75" />
  <path d="M1050 1000 L830 420 L870 420 L1090 1000 Z" fill="#d7c9b5" opacity="0.75" />

  <rect x="330" y="260" width="300" height="360" rx="26" fill="#f4f8ee" stroke="#a9c39c" stroke-width="8" />
  <rect x="980" y="250" width="320" height="370" rx="26" fill="#f1f8ee" stroke="#a9c39c" stroke-width="8" />

  <g fill="#8ab585">
    <rect x="370" y="320" width="220" height="120" rx="16" />
    <rect x="370" y="470" width="220" height="120" rx="16" />
    <rect x="1020" y="300" width="240" height="130" rx="16" />
    <rect x="1020" y="460" width="240" height="130" rx="16" />
  </g>

  <g fill="url(#bush)">
    <ellipse cx="240" cy="760" rx="170" ry="130" />
    <ellipse cx="400" cy="780" rx="190" ry="130" />
    <ellipse cx="1320" cy="760" rx="190" ry="130" />
    <ellipse cx="1480" cy="780" rx="180" ry="130" />
  </g>

  <g fill="#74a86f">
    <circle cx="170" cy="640" r="24" />
    <circle cx="260" cy="620" r="20" />
    <circle cx="350" cy="650" r="18" />
    <circle cx="1220" cy="640" r="26" />
    <circle cx="1360" cy="620" r="22" />
    <circle cx="1460" cy="650" r="18" />
  </g>

  <text x="86" y="152" fill="#2f5d4a" font-size="72" font-family="'Noto Sans SC', sans-serif" font-weight="700">四季夏木 · 校园植保社区</text>
  <text x="90" y="220" fill="#4d6f60" font-size="36" font-family="'Noto Sans SC', sans-serif">离线可用欢迎背景，避免图裂</text>
</svg>
